<?xml version="1.0" encoding="utf-8"?>
<!-- Generator: Adobe Illustrator 19.2.1, SVG Export Plug-In . SVG Version: 6.00 Build 0)  -->
<svg version="1.1" id="layer" xmlns="http://www.w3.org/2000/svg" xmlns:xlink="http://www.w3.org/1999/xlink" x="0px" y="0px"
	 viewBox="0 0 652 652" style="enable-background:new 0 0 652 652;" xml:space="preserve">
<style type="text/css">
	.st0{fill:#0468B1;}
	.st1{fill:#FFFFFF;}
</style>
<path class="st0" d="M196.6,325.5h119.2v119.2H196.6V325.5z"/>
<path class="st1" d="M227.1,344.4v46.9c0,24.7,12.3,33.7,28.8,33.7c17.3,0,29.6-9.9,29.6-34.5v-46.9h-9.9v47.7
	c0,17.3-8.2,25.5-19.7,25.5c-10.7,0-18.9-7.4-18.9-25.5v-46.9C236.9,344.4,227.1,344.4,227.1,344.4z"/>
<path class="st0" d="M323.3,325.5h119.2v119.2H323.3V325.5z"/>
<path class="st1" d="M362.8,425v-33.7c0-13.2,0-23-0.8-32.9c4.1,9,9,18.1,14.8,26.3l25.5,40.3h10.7v-78.9h-9v33.7
	c0,12.3,0,22.2,1.6,32.9c-3.3-8.2-8.2-16.4-14-26.3l-25.5-40.3h-11.5v79.8C354.5,425.8,362.8,425,362.8,425z"/>
<path class="st0" d="M323.3,452.2h119.2v119.2H323.3V452.2z"/>
<path class="st1" d="M403.1,477.7c-4.9-4.1-12.3-6.6-23-6.6c-8.2,0-14.8,0.8-19.7,1.6v78.9h9.9v-32.1c2.5,0.8,4.9,0.8,8.2,0.8
	c9.9,0,18.9-3.3,23.8-9c4.1-4.1,6.6-9.9,6.6-17.3C410.5,487.5,408,481.8,403.1,477.7"/>
<path class="st0" d="M380,512.2c-3.3,0-6.6,0-9-0.8v-30.4c1.6,0,4.9-0.8,9.9-0.8c11.5,0,18.9,4.9,18.9,15.6
	C399.8,506.4,392.4,512.2,380,512.2 M196.6,452.2h119.2v119.2H196.6V452.2z"/>
<path class="st1" d="M280.5,480.9c-6.6-6.6-17.3-9.9-32.1-9.9c-8.2,0-15.6,0.8-22.2,1.6v78.9c4.9,0.8,11.5,0.8,18.9,0.8
	c15.6,0,28-4.1,35.4-11.5c7.4-7.4,11.5-18.1,11.5-30.4C292,496.6,287.9,487.5,280.5,480.9"/>
<path class="st0" d="M247.6,543.4c-4.1,0-8.2,0-10.7-0.8v-62.5c2.5-0.8,6.6-1.6,12.3-1.6c22.2,0,32.1,11.5,32.1,30.4
	C281.3,531.1,269,544.3,247.6,543.4 M196.6,71.4h246.7v246.7H196.6V71.4z"/>
<path class="st1" d="M408,199.7c-3.3,4.9-8.2,9-10.7,14.8c0-4.1,0.8-9-0.8-12.3c-2.5-8.2-4.9-15.6-5.8-25.5v-3.3
	c1.6,9,10.7,15.6,9.9,25.5c0,2.5-0.8,4.9-1.6,6.6v-0.8c1.6-4.9,1.6-9.9,4.1-14.8c3.3-6.6,6.6-13.2,4.9-21.4
	C414.6,178.3,412.9,190.6,408,199.7"/>
<path class="st1" d="M403.1,148.7c5.8,8.2,7.4,20.6,2.5,29.6c-1.6,4.1-2.5,8.2-3.3,12.3c0-0.8,0-1.6-0.8-2.5c-1.6-9-10.7-15.6-14-23
	c-1.6-2.5-1.6-4.9-2.5-9c3.3,6.6,12.3,9.9,15.6,18.1c1.6,1.6,0.8,4.1,1.6,6.6c-1.6-8.2-0.8-15.6,0-23c0-4.1-0.8-8.2-2.5-11.5
	C400.6,145.4,401.4,147.1,403.1,148.7"/>
<path class="st1" d="M398.9,147.1c1.6,6.6-0.8,13.2,0.8,20.6c-4.1-7.4-11.5-10.7-17.3-16.4c-3.3-3.3-4.9-8.2-4.9-12.3
	c3.3,7.4,11.5,9,16.4,15.6c1.6,1.6,1.6,3.3,3.3,4.9c-2.5-5.8-4.1-12.3-4.9-19.7l-4.9-7.4C392.4,133.9,397.3,140.5,398.9,147.1"/>
<path class="st1" d="M381.7,131.4c4.9,4.9,6.6,9.9,8.2,15.6l0.8,1.6c-6.6-4.9-13.2-12.3-18.1-18.9l-4.9-5.8
	C371.8,125.7,377.6,127.3,381.7,131.4 M290.4,125.7c9-4.9,19.7-6.6,29.6-7.4c24.7,0,48.5,14.8,59.2,37c6.6,13.2,9,31.3,4.9,46.1
	c-4.9,18.1-19.7,35.4-37,42.8c-19.7,9-46.9,7.4-64.1-4.9c-23.8-15.6-33.7-44.4-26.3-72.4C260.8,150.3,273.9,133.1,290.4,125.7
	 M271.5,125.7c-4.9,4.1-8.2,9.9-12.3,14.8c-3.3,3.3-7.4,6.6-11.5,9.9c2.5-4.9,2.5-9.9,5.8-13.2C257.5,129.8,264.9,128.1,271.5,125.7
	"/>
<path class="st1" d="M244.3,140.5c1.6-3.3,4.9-4.9,9-5.8c-6.6,4.9-5.8,12.3-8.2,19.7c-0.8,1.6-1.6,4.9-2.5,6.6
	c1.6-2.5,3.3-4.9,4.9-8.2c4.9-4.9,11.5-7.4,14-14c0,9-7.4,15.6-14.8,20.6c-3.3,2.5-5.8,4.9-7.4,9v-6.6
	C240.2,154.5,239.4,145.4,244.3,140.5"/>
<path class="st1" d="M232,166c0-8.2,3.3-14,7.4-19.7c-4.9,7.4-0.8,17.3-1.6,25.5l-0.8,9c0-1.6,0-1.6,0.8-3.3
	c1.6-7.4,7.4-12.3,12.3-17.3c1.6-1.6,1.6-2.5,2.5-4.1c-0.8,3.3-1.6,7.4-3.3,10.7c-4.1,8.2-12.3,14.8-13.2,23.8
	C236.9,182.4,230.4,175,232,166"/>
<path class="st1" d="M227.9,177.5l2.5-7.4c-1.6,9.9,4.9,18.1,7.4,26.3l2.5,9.9c-3.3-9,1.6-18.1,6.6-26.3c1.6-1.6,1.6-4.1,2.5-6.6
	c0.8,4.1-0.8,9-1.6,13.2c-1.6,4.9-3.3,11.5-4.9,16.4c-1.6,3.3-0.8,7.4,0,10.7c-3.3-6.6-10.7-12.3-12.3-19.7
	C227.9,189.8,226.3,183.2,227.9,177.5"/>
<path class="st1" d="M227.1,197.2c0.8,10.7,12.3,16.4,18.1,26.3c1.6,1.6,2.5,3.3,4.9,4.9c0-1.6-1.6-1.6-1.6-3.3
	c-1.6-4.1-2.5-8.2-1.6-12.3c0.8-4.9,2.5-10.7,1.6-16.4c4.9,9.9,3.3,23,5.8,33.7c0.8,2.5,1.6,4.9,3.3,6.6c-9.9-6.6-23-12.3-27.1-25.5
	C227.1,207.1,227.1,202.2,227.1,197.2"/>
<path class="st1" d="M233.7,221.9c4.9,12.3,19.7,13.2,28,20.6c0.8,1.6,3.3,3.3,4.9,3.3c-1.6-1.6-4.9-4.1-5.8-6.6
	c-4.9-7.4-3.3-18.1-7.4-26.3c3.3,4.9,6.6,9,9,14.8c3.3,8.2,4.9,17.3,12.3,23c-8.2-2.5-18.1-1.6-25.5-6.6S234.5,231.8,233.7,221.9"/>
<path class="st1" d="M247.6,245.7c9,9.9,23,6.6,34.5,9c1.6,0,3.3,0.8,4.9,0.8c-1.6-0.8-3.3-0.8-4.9-1.6c-9-3.3-10.7-12.3-15.6-19.7
	c6.6,4.1,11.5,9.9,17.3,15.6c4.1,3.3,9,4.9,14.8,6.6c-1.6,0.8-3.3,0-4.9,0.8c-9.9,2.5-19.7,5.8-30.4,2.5
	C257.5,256.4,250.9,251.5,247.6,245.7"/>
<path class="st1" d="M366.1,267.9c-9.9,3.3-19.7,0-28-5.8c-3.3-1.6-5.8-4.9-9.9-4.9h-4.1c7.4,3.3,14.8,8.2,20.6,14.8
	c-1.6,1.6-2.5,2.5-4.1,3.3c-5.8-6.6-12.3-12.3-20.6-16.4c-1.6,0-2.5,1.6-4.1,1.6c-5.8,4.1-12.3,9-16.4,15.6l-4.1-4.1
	c6.6-6.6,13.2-11.5,20.6-14.8c-7.4-2.5-12.3,4.1-18.1,7.4c-6.6,4.9-15.6,6.6-23.8,3.3c-4.9-1.6-9-4.1-11.5-8.2
	c6.6,4.9,15.6,4.9,23,1.6c9.9-4.1,19.7-9,31.3-6.6c1.6,0,3.3,1.6,4.9,0c9-1.6,18.1-0.8,26.3,3.3l8.2,3.3c7.4,2.5,15.6,1.6,23-2.5
	C374.3,263.8,371,267.1,366.1,267.9"/>
<path class="st1" d="M376.7,258.1c-11.5,4.1-22.2-0.8-32.9-2.5h-1.6c4.9-1.6,9.9-2.5,14-6.6c5.8-5.8,11.5-11.5,18.1-15.6
	c-4.9,6.6-4.9,15.6-13.2,19.7c-1.6,1.6-4.9,1.6-6.6,2.5c3.3,0,4.9-1.6,9-1.6c10.7-1.6,23,0,30.4-9
	C389.9,250.7,382.5,256.4,376.7,258.1"/>
<path class="st1" d="M382.5,246.6c-4.9,1.6-11.5,1.6-17.3,4.1c9-8.2,9-20.6,14.8-29.6c1.6-2.5,3.3-4.9,5.8-8.2
	c-4.1,7.4-1.6,17.3-6.6,24.7c-1.6,3.3-4.1,5.8-6.6,8.2c0.8,0,1.6-0.8,2.5-1.6c7.4-6.6,15.6-9,23.8-14.8c3.3-2.5,5.8-4.9,7.4-9
	C405.5,232.6,393.2,243.3,382.5,246.6"/>
<path class="st1" d="M396.5,226.8c-4.9,2.5-9,4.9-12.3,9c6.6-10.7,3.3-25.5,7.4-37l1.6-4.1c-0.8,7.4,2.5,13.2,1.6,20.6
	c0,4.9-1.6,8.2-4.1,12.3c3.3-4.1,4.9-9,9-12.3c5.8-4.9,11.5-11.5,12.3-18.9C414.6,208.7,407.2,220.2,396.5,226.8"/>
<path class="st0" d="M347.1,226c2.5-1.6,4.9-3.3,6.6-4.9h-1.6c-1.6,0-1.6-1.6-1.6-1.6l-4.1-4.1v-0.8c0,0.8-0.8,1.6-1.6,1.6
	c0,0.8,0,1.6,0.8,1.6c1.6,0.8,3.3,1.6,3.3,2.5c-0.8,1.6-3.3,2.5-1.6,4.9C348,225.2,346.3,225.2,347.1,226 M324.1,172.6
	c0.8,0.8,1.6,0,1.6-0.8c0.8,0,1.6,0.8,1.6,1.6h1.6c0-2.5,4.1-1.6,4.9-4.9h-0.8c0,0-0.8,0-0.8-0.8l1.6-1.6c-3.3-1.6-5.8-3.3-9-4.1
	c-1.6,0-2.5,0-4.1-0.8c0.8,1.6,0,4.9,0.8,6.6l1.6,0.8c0.8-1.6,1.6-1.6,2.5-2.5h1.6v2.5C327.4,171.7,324.9,171.7,324.1,172.6
	 M358.7,194.8c-1.6,4.9-3.3,9-5.8,12.3c-1.6,1.6-1.6,3.3-3.3,4.1l3.3,2.5v-0.8c0,0,0-0.8,0.8-0.8c1.6,0,1.6,1.6,1.6,1.6
	c0,1.6,0.8,1.6,0.8,3.3c8.2-9,12.3-19.7,13.2-31.3l0.8-0.8h-9.9c0,1.6,0,4.1-0.8,5.8l1.6,1.6v1.6
	C359.5,195.6,359.5,195.6,358.7,194.8 M350.4,166c-1.6-1.6-2.5-4.1-4.9-5.8c-3.3,3.3-6.6,6.6-9,9.9l0.8,0.8c0-0.8,0.8-1.6,0.8-1.6
	c0.8-1.6,1.6,0,3.3,0h4.9c1.6,0.8,1.6,1.6,2.5,2.5v1.6c0,2.5,1.6-0.8,2.5,0c0.8,0,1.6,0,1.6,0.8c0,1.6,1.6,0.8,1.6,1.6
	c0,0.8-0.8,0.8-0.8,0.8c0,1.6-1.6,1.6-0.8,2.5c1.6,0,1.6-1.6,2.5-2.5c-0.8-1.6-0.8-3.3-1.6-4.9c-1.6,0-1.6-1.6-2.5-1.6
	C348.8,168.4,351.2,167.6,350.4,166 M321.6,234.2c2.5-0.8,4.9-0.8,8.2-1.6c-0.8,0-1.6,0-1.6-0.8c-1.6,0-1.6-1.6-2.5-3.3
	c0-0.8,0-1.6,0.8-2.5c-0.8-1.6-2.5,0-4.1-0.8c0,0-0.8-0.8-1.6-0.8l0.8,0.8L321.6,234.2 M324.1,208.7c0.8,0,0,1.6,0.8,1.6
	c1.6-0.8,2.5,1.6,3.3,0c0-1.6,1.6-1.6,2.5-1.6c1.6-0.8,3.3-1.6,3.3-4.1c-1.6,0-1.6,0.8-1.6,1.6c-0.8,0.8-1.6-1.6-1.6-0.8v0.8
	c-1.6,1.6-1.6-0.8-2.5,0v0.8c-0.8-1.6-1.6-0.8-2.5-1.6h-1.6c0,0.8-1.6,0-1.6,0.8c-0.8,0-0.8,1.6-1.6,1.6c-1.6,0-1.6,1.6-2.5,0.8v0.8
	h1.6C320.8,207.9,322.5,209.6,324.1,208.7 M333.2,196.4c0,0.8,0,1.6,0.8,1.6c1.6,0,0.8,1.6,1.6,1.6c0.8,0,0-0.8,0-1.6
	C335.6,196.4,334.8,196.4,333.2,196.4C334,196.4,334,196.4,333.2,196.4C334,195.6,334,195.6,333.2,196.4 M332.3,150.3
	c-3.3-1.6-6.6-1.6-10.7-1.6v9.9h0.8c4.9,0.8,10.7,2.5,14.8,5.8v0.8c1.6-1.6,3.3-4.1,4.9-5.8l1.6-0.8H343
	C339.7,154.5,335.6,152,332.3,150.3 M270.7,187.4l0.8,5.8c0,1.6,1.6,4.9,1.6,6.6c0-0.8,0-1.6,1.6-1.6c0-0.8,0.8-1.6,0-1.6
	c0-1.6,0.8-3.3,1.6-4.9c1.6,0,1.6-1.6,3.3-2.5c0.8,0,1.6,1.6,1.6,1.6c-1.6-1.6-1.6-3.3-0.8-4.9h-10.7
	C269.8,185.7,270.7,187.4,270.7,187.4z M329.9,203c0.8-0.8,2.5-0.8,2.5-1.6C331.5,200.5,331.5,201.3,329.9,203
	C329,202.2,329,203,329.9,203 M350.4,185.7l1.6,1.6c1.6,0.8,0,1.6,1.6,2.5s1.6,1.6,1.6,3.3v-0.8c0.8-1.6,0-4.1,0.8-4.9
	C354.5,186.5,352.1,186.5,350.4,185.7 M337.3,209.6c1.6,0,1.6,1.6,3.3,1.6c1.6-0.8,3.3,0,4.1-0.8c0-1.6,0.8-1.6,1.6-3.3
	c0.8,0.8,0.8,1.6,0.8,2.5c0.8-1.6,1.6-1.6,2.5-3.3c1.6-3.3,4.1-6.6,4.9-9.9c-0.8,0-1.6,0-2.5,0.8c-0.8,0-1.6,0.8-3.3,0H348
	c0,0.8-0.8,1.6-1.6,0.8c-0.8,0-0.8-0.8-0.8-1.6v1.6c-0.8,0.8-0.8,1.6-1.6,1.6c-0.8,0.8-1.6,0.8-2.5,1.6c0,1.6-1.6,1.6-2.5,1.6h1.6
	c1.6,0,1.6-1.6,1.6-1.6c0.8,0,1.6-0.8,1.6,0c0.8,0.8,0.8,1.6,0.8,3.3c-0.8,0.8,0,1.6-0.8,3.3c0,1.6-1.6,1.6-1.6,2.5
	c-0.8,0.8-1.6,0.8-1.6,0.8c-2.5-1.6-4.9-1.6-8.2-1.6c0,0-0.8,0,0,0.8C334.8,208.7,335.6,208.7,337.3,209.6 M317.5,238.3
	c-13.2-0.8-24.7-4.9-33.7-14.8l-6.6,6.6c9.9,9,22.2,14.8,35.4,15.6c1.6,0,4.9,0,6.6,0.8l-0.8-0.8
	C318.4,245.7,317.5,238.3,317.5,238.3z M304.4,203c3.3,2.5,7.4,4.9,12.3,4.9v-2.5c0-0.8,1.6-0.8,1.6-0.8s0.8-0.8,0-0.8
	c-0.8,0-0.8-1.6-0.8-1.6s0.8,0,0.8-0.8c-0.8-0.8,0-1.6,0-1.6l0.8-0.8c-1.6,0.8-4.1,0-5.8-1.6l-1.6-1.6L304.4,203 M301.1,192.3
	C300.3,192.3,300.3,192.3,301.1,192.3h-1.6c0-1.6-1.6-0.8-2.5-1.6l2.5,4.9c0.8,1.6,1.6,2.5,2.5,4.1c0.8-1.6,1.6-1.6,2.5-3.3v-1.6
	c0-0.8,0-1.6-0.8-1.6c-0.8,0,0,1.6,0,1.6h-0.8c-0.8,0-1.6-0.8-1.6-1.6C301.9,193.1,301.1,193.1,301.1,192.3 M307.7,193.1
	c0,0.8-0.8,1.6-1.6,1.6c0.8-0.8,1.6-1.6,2.5-1.6H307.7z M317.5,225.2c-8.2,0-14.8-3.3-21.4-8.2c0,0.8,1.6,1.6,0.8,1.6
	c-0.8,0.8-1.6,0.8-2.5,0.8c-1.6,0-3.3,1.6-4.9,1.6c-1.6,0.8-1.6-1.6-3.3-1.6c9,8.2,19.7,12.3,32.1,13.2l0.8,0.8v-9.9
	C319.2,223.5,317.5,225.2,317.5,225.2z"/>
<path class="st0" d="M281.3,221.1c-1.6-0.8-1.6-1.6-3.3-3.3c-1.6,0-1.6-1.6-2.5-1.6v-1.6v0.8c-1.6,0.8-1.6-0.8-2.5-1.6
	c-1.6-0.8-0.8-3.3-2.5-2.5c-0.8,0-0.8-0.8-1.6-0.8c-1.6,0-1.6-1.6-1.6-1.6v0.8c-1.6,0-1.6-1.6-2.5-1.6h-0.8
	c-0.8-0.8-1.6-1.6-1.6-3.3c-1.6-1.6-0.8-3.3,0-4.9c0,0,0.8-0.8,0.8-1.6c0-0.8,1.6-0.8,1.6-0.8s0.8,0,0.8,0.8c0.8,0,1.6,0,1.6-0.8
	c0.8-0.8,1.6-0.8,1.6-0.8c0.8,0.8,0.8,1.6,1.6,1.6l-0.8-0.8c-0.8-3.3-1.6-6.6-1.6-9.9v-2.5h-11.5c0.8,10.7,3.3,19.7,8.2,28.8
	c1.6,4.9,5.8,8.2,9,12.3l6.6-6.6C280.5,219.4,281.3,221.1,281.3,221.1z M292,143.8c-1.6,1.6-4.1,3.3-5.8,4.9
	c2.5,1.6,4.9,4.1,6.6,5.8v0.8c4.9-4.9,12.3-8.2,18.9-9.9c1.6,0,3.3-0.8,4.9,0v-9C307.7,136.4,300.3,139.7,292,143.8 M283.8,179.1
	c0,1.6,0,3.3-0.8,4.9c1.6-0.8,2.5,0,4.1,0c-0.8,0,0-1.6-0.8-1.6c0-0.8,0-1.6,0.8-2.5c0-1.6,1.6-1.6,1.6-3.3c0-1.6,1.6-0.8,2.5-1.6
	c0.8,0,0-0.8,0-1.6c0.8-0.8,1.6-0.8,2.5-1.6l1.6-1.6c1.6,0,1.6-2.5,4.1-2.5c-2.5-1.6-4.9-4.9-7.4-6.6
	C288.8,166,285.5,171.7,283.8,179.1 M285.5,192.3c0-0.8-0.8-0.8-0.8-1.6c0.8-1.6,0-3.3,1.6-3.3c-1.6,0-1.6,0.8-3.3,0l0.8,0.8
	c0,1.6,0.8,4.1,0.8,6.6C284.6,193.1,284.6,192.3,285.5,192.3z"/>
<path class="st0" d="M283.8,151.2l-3.3,4.9c-5.8,8.2-9,17.3-9,27.1h9.9v-0.8c0.8-9,4.1-18.1,10.7-24.7
	C288.8,155.3,286.3,153.6,283.8,151.2z M311,212.8c0.8-0.8,1.6-1.6,2.5-1.6c-3.3,0.8-4.9-1.6-8.2-2.5c-1.6-0.8-3.3-1.6-4.1-3.3
	c-1.6,2.5-4.1,4.9-6.6,6.6c1.6,0,1.6,1.6,2.5,1.6c4.9,4.1,11.5,5.8,16.4,7.4l-1.6-0.8c-1.6-1.6-2.5-3.3-3.3-4.9
	C311,214.5,311,213.7,311,212.8 M288.8,186.5v1.6c0,1.6-1.6,0-1.6,0.8v1.6c-0.8,1.6,1.6,2.5,1.6,4.9c0.8,1.6,0,2.5,1.6,4.1
	c0,1.6,0,4.9,1.6,6.6v1.6c0,1.6-1.6,1.6-1.6,1.6s0.8,0,0.8,0.8c2.5-3.3,4.9-5.8,9-9l-1.6-1.6c-1.6-3.3-4.1-7.4-4.9-11.5l-0.8-0.8
	c0,1.6-0.8,1.6-0.8,3.3c-0.8,0-1.6-0.8-1.6-0.8s-0.8-0.8,0-1.6h0.8v-1.6c0-0.8-0.8-1.6,0-1.6c0.8,0,1.6,0.8,1.6,1.6
	c0.8,0,1.6,0,1.6-0.8s0.8-1.6,0-1.6c0.8-1.6,0-2.5,0-4.1c-0.8-0.8-1.6,0-2.5,0c-2.5,0.8,0.8,2.5,0,4.9
	C290.4,187.4,289.6,185.7,288.8,186.5 M372.6,186.5c-0.8,11.5-4.9,20.6-10.7,29.6c-1.6,1.6-1.6,3.3-4.1,4.1c2.5,1.6,4.9,4.9,7.4,7.4
	c9.9-11.5,15.6-24.7,15.6-40.3v-0.8H372.6z M283.8,147.1c9.9-9,20.6-14,33.7-14.8v-9.9c-13.2,0.8-24.7,4.9-35.4,12.3
	c-1.6,1.6-3.3,3.3-5.8,4.9C279.7,141.3,282.2,143.8,283.8,147.1 M317.5,148.7c-8.2,0.8-15.6,4.1-22.2,9c2.5,1.6,4.9,4.9,6.6,6.6
	c0,0,0-0.8,0.8-0.8c3.3-1.6,6.6-4.1,9.9-4.9c1.6,0,3.3-0.8,4.9-0.8C317.5,157.7,317.5,148.7,317.5,148.7z M317.5,161
	c-5.8,0.8-9.9,3.3-14,7.4h0.8c0.8,0.8,1.6,0.8,2.5,1.6c0,0.8-0.8,0.8-0.8,1.6h0.8c0.8,0,0.8,0,0.8-0.8c0.8-0.8,0.8,0.8,1.6,0.8h1.6
	c0.8-0.8,1.6,0,1.6-0.8c1.6-1.6,0.8-2.5,1.6-3.3c0.8,0,0,0.8,0,1.6c1.6,0.8,1.6-0.8,3.3,0V161 M318.4,175.8
	c-1.6,1.6-2.5,1.6-4.1,2.5c-0.8,0.8,0,1.6-1.6,1.6c0,0.8-1.6,1.6-1.6,1.6c-0.8,1.6,0,2.5-0.8,4.1c-1.6,1.6-1.6-1.6-2.5-1.6h-2.5
	c-0.8,0.8-1.6,1.6-0.8,1.6c0,0.8-1.6,0-1.6,1.6c1.6,0,1.6,0,3.3-0.8h1.6c0,0,0.8,0,0.8,0.8c0.8,0,0.8-1.6,0.8-1.6
	c0-0.8,0.8-0.8,1.6-0.8s0,0.8,0,0.8c1.6,0.8,0,1.6-0.8,2.5c0,0.8,0,1.6-1.6,1.6V189c0,0.8,0,1.6,0.8,1.6c0.8-0.8,0.8-1.6,1.6-1.6
	c0.8-0.8,0-1.6,0.8-2.5c1.6,0,3.3-0.8,4.9,0.8v1.6c0,0.8-0.8,1.6-1.6,1.6v1.6c-0.8,1.6-2.5,1.6-4.1,1.6c1.6,1.6,4.9,1.6,7.4,1.6
	c1.6,0,0.8-1.6,1.6-2.5c0.8-1.6,2.5-0.8,4.1-1.6c0.8-1.6,1.6-1.6,1.6-3.3c-1.6-0.8-1.6-1.6-1.6-2.5c-0.8-0.8-0.8-1.6-1.6-1.6v-0.8
	c0-0.8,0.8-0.8,0.8-1.6c-0.8-0.8-0.8-1.6-0.8-1.6c-1.6,0-1.6-1.6-2.5-1.6c0-0.8-1.6-0.8-1.6-1.6c-1.6,0.8-1.6-1.6-3.3-1.6v-1.6
	c0.8-0.8,1.6,0,1.6,0h-0.8c-0.8-0.8-1.6,0-2.5,0C318.4,175,317.5,175,318.4,175.8"/>
<path class="st0" d="M267.4,183.2v-1.6c0.8-10.7,4.1-19.7,9.9-28c1.6-1.6,2.5-4.1,4.9-4.9l-6.6-6.6c-9,10.7-15.6,23-16.4,36.2
	c0,1.6,0,4.1-0.8,5.8C260.8,182.4,264.9,182.4,267.4,183.2 M357,222.7c-0.8,1.6-3.3,3.3-4.9,4.9c-1.6,1.6-4.9,2.5-6.6,5.8
	c-1.6,1.6-1.6,2.5-3.3,3.3c-0.8,1.6-1.6,1.6-3.3,2.5c-2.5,2.5-4.9-1.6-6.6-1.6l-4.9,0.8c-1.6,0-3.3,0.8-4.9,0v9.9h0.8
	c15.6-0.8,29.6-6.6,41.1-17.3l-7.4-6.6C357,224.4,357,222.7,357,222.7z M321.6,131.4c0.8-0.8,0.8-0.8,1.6,0v1.6h0.8
	c7.4,0.8,14.8,2.5,20.6,6.6c1.6-0.8,3.3-1.6,4.1,0c1.6-0.8,1.6,1.6,3.3,1.6c0.8,0,2.5,2.5,2.5,4.1c0,0.8,1.6,1.6,1.6,1.6
	c1.6-1.6,3.3-4.1,4.9-5.8l1.6-0.8c-9.9-9-22.2-14.8-34.5-16.4c-1.6,0-4.9,0-6.6-0.8V131.4"/>
<path class="st0" d="M321.6,145.4c1.6-0.8,2.5,0,4.1,0c6.6,1.6,12.3,3.3,18.1,7.4c-0.8-0.8-1.6-1.6-1.6-2.5c0-1.6-1.6-1.6-1.6-2.5
	h0.8c1.6,1.6,1.6,1.6,2.5,3.3c0.8,0,1.6,0,1.6,0.8s0,1.6,1.6,2.5c0,1.6,2.5,3.3,2.5,4.9c0,0.8,0.8,0,0.8,0l1.6,2.5v1.6
	c0.8,0,1.6-0.8,1.6-0.8c1.6,0.8,0,1.6,0,2.5h1.6c0,0.8-0.8,1.6-0.8,1.6c0,0.8,0.8,0.8,1.6,0.8c0.8,0,0.8,0.8,0.8,1.6
	c1.6,1.6-0.8,3.3,0,4.9c0.8,1.6,0,1.6-0.8,3.3c0,1.6-1.6,1.6-1.6,3.3h-1.6c-0.8,0.8,0.8,1.6,0,2.5h3.3c-0.8-1.6,0-3.3,0.8-4.9
	c0.8-1.6,0.8-2.5,1.6-3.3c0,0,0.8-0.8,0.8,0c0,1.6,0,2.5-0.8,3.3c1.6,1.6,0.8,3.3,1.6,4.9h9.9v-0.8c-0.8-5.8-1.6-12.3-4.1-17.3
	c-0.8,0-1.6,0.8-1.6,0c0,0-0.8,0,0-0.8c-1.6-1.6-1.6-2.5-3.3-4.1c-1.6,0-2.5-1.6-4.1-1.6s-0.8-2.5-2.5-1.6c-0.8,0-1.6-1.6-1.6-1.6
	c0-1.6,0-3.3-1.6-4.9c-1.6-0.8-1.6,1.6-2.5,0.8c-0.8,0,0-1.6-0.8-1.6c0-0.8-0.8-0.8-0.8-1.6c1.6-1.6-1.6-1.6-1.6-4.1
	c0-1.6-1.6-1.6-2.5-3.3c-4.9-1.6-9.9-4.1-15.6-4.9c-1.6,0-2.5,0-4.1-0.8v0.8C321.6,139.7,321.6,142.1,321.6,145.4"/>
<path class="st0" d="M357,148.7c0.8,0,0.8,1.6,1.6,1.6c2.5,1.6,3.3,4.1,4.9,4.9c1.6,2.5,4.1,4.9,4.1,7.4c2.5,6.6,4.9,12.3,4.9,20.6
	h9.9c-0.8-0.8,0-1.6-0.8-3.3c-1.6-14.8-7.4-27.1-17.3-37.8C362.8,144.6,360.3,147.1,357,148.7z"/>
<path class="st1" d="M322.5,129.8c0-0.8,1.6,0,1.6,0l4.9-1.6c1.6,0,4.1,0,4.9,1.6c-1.6,1.6-2.5,1.6-4.1,1.6
	C327.4,131.4,324.9,132.3,322.5,129.8 M350.4,135.5c0.8,0,1.6,0.8,1.6,1.6s0.8,1.6,0,1.6c-1.6,0.8-1.6-1.6-3.3-1.6v-0.8
	C349.6,134.7,349.6,136.4,350.4,135.5"/>
</svg>
